# xmcd CD database file
#
# Track frame offsets:
#	150
#	34269
#	57318
#	78874
#	87823
#	119185
#	151439
#	167676
#	192800
#	219347
#	237835
#
# Disc length: 3612 seconds
#
# Revision: 0
# Processed by: cddbd v1.5.2PL0 Copyright (c) Steve Scherf et al.
# Submitted via: CDex 1.51
#
DISCID=8c0e1a0b
DTITLE=Rainer Scheurenbrand - Jardim
DYEAR=2006
DGENRE=New Age
TTITLE0=Fly
TTITLE1=Round
TTITLE2=Jardim des Flores
TTITLE3=Noise
TTITLE4=Cura
TTITLE5=Shiva
TTITLE6=Camino da Luz
TTITLE7=Valor do Pedido
TTITLE8=Firmeza
TTITLE9=Luaja
TTITLE10=Nana
EXTD=YEAR: 2006
EXTT0=
EXTT1=
EXTT2=
EXTT3=
EXTT4=
EXTT5=
EXTT6=
EXTT7=
EXTT8=
EXTT9=
EXTT10=
PLAYORDER=
